<?xml version="1.0" encoding="UTF-8"?>
<svg width="100px" height="78px" viewBox="0 0 100 78" version="1.1" xmlns="http://www.w3.org/2000/svg" xmlns:xlink="http://www.w3.org/1999/xlink">
    <!-- Generator: Sketch 64 (93537) - https://sketch.com -->
    <title>death</title>
    <desc>Created with Sketch.</desc>
    <defs>
        <rect id="path-1" x="0" y="0" width="160" height="90" rx="10"></rect>
        <filter x="-10.3%" y="-15.0%" width="120.6%" height="136.7%" filterUnits="objectBoundingBox" id="filter-2">
            <feOffset dx="0" dy="3" in="SourceAlpha" result="shadowOffsetOuter1"></feOffset>
            <feGaussianBlur stdDeviation="5" in="shadowOffsetOuter1" result="shadowBlurOuter1"></feGaussianBlur>
            <feColorMatrix values="0 0 0 0 0.903589221   0 0 0 0 0.903589221   0 0 0 0 0.903589221  0 0 0 1 0" type="matrix" in="shadowBlurOuter1"></feColorMatrix>
        </filter>
        <rect id="path-3" x="420" y="130" width="600" height="500" rx="10"></rect>
        <filter x="-10.2%" y="-11.7%" width="120.5%" height="124.6%" filterUnits="objectBoundingBox" id="filter-4">
            <feOffset dx="0" dy="3" in="SourceAlpha" result="shadowOffsetOuter1"></feOffset>
            <feGaussianBlur stdDeviation="20" in="shadowOffsetOuter1" result="shadowBlurOuter1"></feGaussianBlur>
            <feColorMatrix values="0 0 0 0 0.179093071   0 0 0 0 0.179093071   0 0 0 0 0.179093071  0 0 0 1 0" type="matrix" in="shadowBlurOuter1"></feColorMatrix>
        </filter>
    </defs>
    <g id="Page-1" stroke="none" stroke-width="1" fill="none" fill-rule="evenodd">
        <g id="game-over" transform="translate(-670.000000, -210.000000)">
            <g id="content">
                <rect id="bg" fill="#F8F7F6" x="0" y="100" width="1440" height="924"></rect>
                <g id="board" transform="translate(460.000000, 150.000000)">
                    <g id="card" transform="translate(180.000000, 110.000000)">
                        <g>
                            <use fill="black" fill-opacity="1" filter="url(#filter-2)" xlink:href="#path-1"></use>
                            <use fill="#FFFFFF" fill-rule="evenodd" xlink:href="#path-1"></use>
                        </g>
                    </g>
                    <g id="card" transform="translate(180.000000, 0.000000)" fill="#EBEBEB">
                        <rect x="0" y="0" width="160" height="90" rx="10"></rect>
                    </g>
                </g>
            </g>
            <rect id="bg" fill-opacity="0.7" fill="#000000" x="0" y="0" width="1440" height="780"></rect>
            <g id="bg">
                <use fill="black" fill-opacity="1" filter="url(#filter-4)" xlink:href="#path-3"></use>
                <use fill="#FFFFFF" fill-rule="evenodd" xlink:href="#path-3"></use>
            </g>
            <g id="death" transform="translate(670.000000, 210.000000)" fill-rule="nonzero">
                <path d="M86.8882587,56.9773656 C86.7243424,57.2228304 86.5808427,57.475899 86.4558152,57.7344266 L18.5289506,12.1140442 C18.7197001,11.8997743 18.8985886,11.6702969 19.0625048,11.425027 C20.981278,8.55256254 20.2145854,4.66411947 17.3496478,2.74017461 C14.4849047,0.816229745 10.606914,1.58518379 8.68814086,4.45764829 C7.426005,6.3470838 7.32606079,8.67578236 8.22069753,10.5962178 C6.10923038,10.4977589 3.99951323,11.4766936 2.73737737,13.3661291 C0.818604196,16.2385936 1.5852968,20.1270367 4.45023437,22.0509815 C7.31497749,23.9749264 11.1929682,23.2061673 13.1117413,20.3335078 C13.2756576,20.088043 13.4191573,19.8349745 13.5441848,19.5764468 L81.4710494,65.1966343 C81.2802999,65.4110992 81.1014114,65.6403816 80.9374952,65.8858464 C79.018722,68.7583109 79.7854146,72.646754 82.6503522,74.5706989 C85.5150953,76.4946437 89.393086,75.7258846 91.3118591,72.8532252 C92.573995,70.9637897 92.6739392,68.6348961 91.7793025,66.7146557 C93.8907696,66.8131145 96.0004868,65.8341799 97.2626226,63.9447444 C99.1813958,61.0722799 98.4147032,57.1838368 95.5497656,55.2598919 C92.6850225,53.3359471 88.8072263,54.1049011 86.8882587,56.9773656 Z" id="Path" fill="#D9D9D9"></path>
                <path d="M13.1117413,56.9773164 C13.2756576,57.2227819 13.4191573,57.4758511 13.5441848,57.7343794 L81.4710494,12.1140717 C81.2802999,11.8998012 81.1014114,11.6703232 80.9374952,11.4250527 C79.018722,8.55258066 79.7854146,4.66412733 82.6503522,2.7401774 C85.5150953,0.816227466 89.393086,1.58518354 91.3118591,4.45765561 C92.573995,6.3470961 92.6739392,8.6758008 91.7793025,10.5962413 C93.8907696,10.4977822 96.0004868,11.4767194 97.2626226,13.3661599 C99.1813958,16.238632 98.4147032,20.1270853 95.5497656,22.0510352 C92.6850225,23.9749852 88.8070318,23.2062241 86.8882587,20.333557 C86.7243424,20.0880916 86.5808427,19.8350224 86.4558152,19.576494 L18.5289506,65.1966068 C18.7197001,65.4110722 18.8985886,65.6403553 19.0625048,65.8858207 C20.981278,68.7582928 20.2145854,72.6467461 17.3496478,74.5706961 C14.4849047,76.494646 10.606914,75.7258849 8.68814086,72.8532179 C7.426005,70.9637774 7.32606079,68.6348777 8.22069753,66.7146322 C6.10923038,66.8130913 3.99951323,65.8341541 2.73737737,63.9447136 C0.818604196,61.0722415 1.5852968,57.1837882 4.45023437,55.2598382 C7.31497749,53.3358883 11.1927737,54.1048444 13.1117413,56.9773164 Z" id="Path" fill="#D9D9D9"></path>
                <path d="M77.3109244,36.6487786 C77.3109244,21.5813903 65.193157,9.35403394 50.2034554,9.24443375 C35.0998578,9.13385673 22.6890756,21.4928896 22.6890756,36.648974 C22.6890756,46.831437 28.2236478,55.7164761 36.4383804,60.4413969 L36.4383804,67.1322832 C36.4383804,69.5050002 38.3551449,71.4285714 40.719706,71.4285714 L59.2799046,71.4285714 C61.6444657,71.4285714 63.5612302,69.5051956 63.5612302,67.1322832 L63.5612302,60.4413969 C71.7763522,55.7164761 77.3109244,46.831437 77.3109244,36.6487786 Z" id="Path" fill="#F7F7F7"></path>
                <path d="M50.168756,9.24443197 C49.117816,9.23661732 48.080522,9.2913199 47.0588235,9.40092044 C60.7777723,10.8716385 71.4626215,22.5096133 71.4626215,36.6488637 C71.4626215,46.8313591 65.9209647,55.7166217 57.6955218,60.4415574 L57.6955218,67.1324649 C57.6955218,69.5051895 55.7763037,71.4285714 53.4085208,71.4285714 L59.2568237,71.4285714 C61.6244116,71.4285714 63.5438246,69.5051895 63.5438246,67.1324649 L63.5438246,60.4415574 C71.7692676,55.7166217 77.3109244,46.8313591 77.3109244,36.6488637 C77.3109244,21.581623 65.1776454,9.35422787 50.168756,9.24443197 Z" id="Path" fill="#E8E8E8"></path>
                <circle id="Oval" fill="#C8C3CA" transform="translate(38.300193, 41.816145) rotate(-45.000000) translate(-38.300193, -41.816145) " cx="38.3001928" cy="41.8161454" r="7.26800113"></circle>
                <ellipse id="Oval" fill="#C8C3CA" transform="translate(60.715595, 41.804856) rotate(-22.514113) translate(-60.715595, -41.804856) " cx="60.7155951" cy="41.8048562" rx="7.26686498" ry="7.2747103"></ellipse>
                <path d="M99.5006675,57.8326007 C99.2145193,57.0728392 98.3687707,56.6901155 97.6122847,56.9771583 C96.8556034,57.2643972 96.4739422,58.1129772 96.7600904,58.8727387 C97.309534,60.3316768 97.1222193,61.9753105 96.2590869,63.2691598 C95.3143095,64.6853552 93.7370762,65.4821734 92.0362035,65.4041385 C91.5207461,65.3774734 91.0365403,65.6268712 90.7509781,66.0546904 C90.4656112,66.4825097 90.423812,67.0289497 90.6408159,67.4953943 C91.3607765,69.0425627 91.226199,70.8116796 90.2812263,72.227875 C89.5667347,73.2985995 88.4795668,74.0260098 87.2201241,74.2759959 C85.9606813,74.526178 84.6795577,74.2687414 83.6128988,73.5515265 C81.4110225,72.071021 80.8193891,69.0682476 82.2944685,66.8575868 C82.4167407,66.6742637 82.5552247,66.4954501 82.706014,66.3256557 C82.9880605,66.0082224 83.1195129,65.5837363 83.066385,65.1617991 C83.0132571,64.7398619 82.7804321,64.3614517 82.4282647,64.1247982 L70.6514593,56.206221 C72.0349322,54.7066969 73.255115,53.0695335 74.2920848,51.3225722 L85.8052042,59.0635123 C86.048772,59.2272287 86.332967,59.312322 86.6204824,59.312322 C86.748419,59.312322 86.8773322,59.2954602 87.0031202,59.2613444 C87.4121266,59.1501742 87.7531606,58.8668567 87.9381315,58.484329 C88.0375509,58.2790464 88.1498616,58.0821946 88.2721338,57.8990676 C89.3856703,56.2303373 91.440273,55.4231275 93.3854948,55.8903563 C94.1722559,56.0795614 94.9629234,55.5923337 95.1512148,54.8025739 C95.3395062,54.0128141 94.8543238,53.2191329 94.0675628,53.0301239 C91.1302954,52.3248692 88.0375509,53.4242195 86.1868654,55.7805585 L75.6685261,48.7084045 C77.4186202,44.9378309 78.3733591,40.7796318 78.3733591,36.4971259 C78.3733591,33.4653345 77.9100529,30.5039313 77.0207473,27.693304 L86.1864747,21.5307071 C88.6594593,24.6885699 93.192125,25.4504881 96.5708224,23.1792424 C100.115154,20.7962383 101.067158,15.9629789 98.6932022,12.4053345 C97.5540784,10.6981749 95.8438302,9.54902345 93.9083745,9.13336039 C94.2621045,7.1787637 93.8546607,5.15358271 92.7155369,3.44661924 C91.565475,1.72318611 89.8157715,0.552467193 87.788514,0.149940659 C85.7614519,-0.252585874 83.6994269,0.161704708 81.9823423,1.31615002 C80.2654531,2.47059534 79.0989841,4.22696781 78.6981813,6.26195217 C78.3360524,8.10086905 78.6380218,9.96860785 79.5484223,11.5832235 L71.0969911,17.2654551 C70.73955,16.8621443 70.3711708,16.4664802 69.9895096,16.0806194 C64.5858986,10.6191597 57.3888318,7.58030989 49.7239663,7.52423459 C49.6516968,7.52384246 49.5798179,7.52345032 49.5077437,7.52345032 C45.3592784,7.52345032 41.3479297,8.39928375 37.5821022,10.1276186 C36.8463204,10.4654428 36.5226702,11.3377471 36.8592117,12.0763332 C37.1955579,12.8149194 38.06455,13.1399993 38.8005271,12.802175 C42.181373,11.250301 45.782348,10.4642664 49.5083297,10.4642664 C49.5727863,10.4642664 49.6378288,10.4646586 49.7024808,10.4650507 C56.588984,10.51544 63.0553475,13.2456797 67.9106869,18.1528565 C72.7681747,23.0623862 75.4433186,29.5773164 75.4433186,36.497322 C75.4433186,45.8048412 70.4401198,54.4655339 62.3857803,59.0995888 C61.930287,59.3615349 61.6494125,59.8483705 61.6494125,60.3753998 L61.6494125,67.0901228 C61.6494125,68.6567019 60.379813,69.9313366 58.8191821,69.9313366 L57.6949029,69.9313366 L57.6949029,65.5762858 C57.6949029,64.7641743 57.0392036,64.1057797 56.2299803,64.1057797 C55.4207571,64.1057797 54.7650578,64.7641743 54.7650578,65.5762858 L54.7650578,69.9313366 L50.9740335,69.9313366 L50.9740335,65.5762858 C50.9740335,64.7641743 50.3183342,64.1057797 49.509111,64.1057797 C48.6998878,64.1057797 48.0441884,64.7641743 48.0441884,65.5762858 L48.0441884,69.9313366 L44.2531642,69.9313366 L44.2531642,65.5762858 C44.2531642,64.7641743 43.5974648,64.1057797 42.7882416,64.1057797 C41.9790184,64.1057797 41.323319,64.7641743 41.323319,65.5762858 L41.323319,69.9313366 L40.1990398,69.9313366 C38.638409,69.9313366 37.3688094,68.656898 37.3688094,67.0901228 L37.3688094,60.3753998 C37.3688094,59.8483705 37.0877396,59.3615349 36.6322464,59.0995888 C28.5781021,54.4655339 23.574708,45.8048412 23.574708,36.497518 C23.574708,28.3144458 27.516131,20.4946865 34.1178533,15.579863 C34.7676929,15.0961645 34.9036378,14.1750395 34.4219712,13.522723 C33.939914,12.8704065 33.0224819,12.7339436 32.3726422,13.217642 C30.8997114,14.3142474 29.5480762,15.5428063 28.3247682,16.8770455 L20.4509071,11.5832235 C21.3613077,9.96860785 21.663277,8.10106512 21.3011482,6.26195217 C20.9003454,4.22696781 19.7340717,2.47059534 18.0171824,1.31615002 C16.3002932,0.161900775 14.2378776,-0.251997672 12.2110107,0.149940659 C10.1839485,0.552271125 8.43424504,1.72299004 7.28418317,3.44642318 C6.14505939,5.15358271 5.73761559,7.1787637 6.09134556,9.13316432 C4.1560852,9.54882738 2.44564162,10.6979789 1.30651784,12.4051384 C-1.06724267,15.9627828 -0.115238335,20.7960422 3.42889764,23.1790464 C6.80759503,25.4504881 11.3406514,24.6883738 13.8132453,21.530511 L22.2072516,27.1743134 C21.1878608,30.1502256 20.6450582,33.298285 20.6450582,36.4971259 C20.6450582,40.9700133 21.6853485,45.307418 23.586818,49.2087687 L13.81305,55.7801663 C11.3402607,52.6224996 6.80759503,51.8603853 3.42870232,54.131631 C-0.115628981,56.5146351 -1.06763332,61.3478945 1.30632252,64.905735 C2.4454463,66.6128945 4.15569455,67.76185 6.09115024,68.177513 C5.73761559,70.1321097 6.14486406,72.1572907 7.28398784,73.8642542 C8.43404971,75.5876873 10.1837532,76.7584062 12.2110107,77.1609327 C12.7165067,77.2613193 13.2239558,77.3109244 13.7278892,77.3109244 C15.244963,77.3109244 16.7282459,76.8613416 18.0171824,75.9947234 C21.3956845,73.7232816 22.4187864,69.2251016 20.4509071,65.728042 L30.9424872,58.6739263 C32.0361007,59.5991687 33.2019837,60.4504937 34.4389643,61.2122158 L34.4389643,67.0897306 C34.4389643,70.2779839 37.0228924,72.8719567 40.1990398,72.8719567 L58.8191821,72.8719567 C61.9953296,72.8719567 64.5792576,70.27818 64.5792576,67.0897306 L64.5792576,61.2122158 C65.9797236,60.349715 67.290341,59.3738872 68.5058361,58.3035548 L79.5484223,65.7282381 C77.580543,69.2254937 78.6036449,73.7234777 81.982147,75.9949195 C83.2710835,76.8615377 84.7541711,77.3109244 86.2714402,77.3109244 C86.7751783,77.3109244 87.2830181,77.2613193 87.7883187,77.1611288 C89.8155762,76.7586023 91.5652797,75.5878834 92.7153416,73.8644502 C93.8544654,72.1572907 94.2619092,70.1321097 93.9081792,68.1777091 C95.8434395,67.762046 97.5538831,66.6128945 98.6930069,64.905735 C100.08273,62.8234984 100.384504,60.1793324 99.5006675,57.8326007 L99.5006675,57.8326007 Z M14.1945159,18.247165 C13.8425438,18.0103155 13.4052156,17.9385548 12.9965999,18.049529 C12.5875935,18.1606992 12.2465595,18.4440167 12.0615886,18.8265444 C11.9621692,19.031827 11.8498585,19.2286788 11.7275863,19.4118058 C10.2527022,21.6220745 7.2615257,22.2159629 5.05925879,20.7354574 C2.85738252,19.2549518 2.26574913,16.2521784 3.74063316,14.0417136 C4.68560587,12.6255183 6.26342513,11.8281118 7.96351659,11.9067349 C8.47858336,11.933204 8.96317974,11.6840022 9.24874198,11.256183 C9.53410889,10.8283637 9.57590802,10.2819237 9.35890415,9.81547915 C8.63894355,8.26831068 8.7735211,6.49919382 9.71849381,5.08299842 C10.4329854,4.01227392 11.5201532,3.28486357 12.779596,3.03487754 C14.0388434,2.78469544 15.3201624,3.04213204 16.3868213,3.75934687 C17.4534802,4.47656171 18.1781286,5.56767723 18.4271654,6.83192033 C18.6762023,8.09616343 18.4199385,9.38217002 17.7052516,10.4532867 C17.5829794,10.6366097 17.4444954,10.8154233 17.293706,10.9852177 C17.0116596,11.302651 16.8802072,11.7271371 16.9333351,12.1492703 C16.9864629,12.5712076 17.219288,12.9496178 17.5714553,13.1862712 L26.4408778,19.1494675 C25.2212809,20.7842782 24.1776701,22.5410428 23.3252805,24.3860377 L14.1945159,18.247165 Z M17.57126,64.1246022 C17.2190926,64.3612556 16.9864629,64.7396658 16.9331397,65.1616031 C16.8800119,65.5837363 17.011269,66.0082224 17.2935107,66.3254596 C17.4443001,66.4952541 17.5827841,66.6740676 17.7052516,66.8575868 C18.4197432,67.9285073 18.6762023,69.2143178 18.4269701,70.4785609 C18.1779333,71.742804 17.4532849,72.8341156 16.386626,73.5511344 C15.319967,74.2683492 14.0380621,74.5255898 12.7794007,74.2756037 C11.5199579,74.0256177 10.4327901,73.2982074 9.71829849,72.2274829 C8.77332578,70.8112875 8.63894355,69.0421706 9.35870883,67.4950021 C9.57571269,67.0285576 9.53391357,66.4821175 9.24854666,66.0542983 C8.96317974,65.6264791 8.47155173,65.376493 7.96332126,65.4037464 C6.26362045,65.4817813 4.68541055,64.684963 3.74043784,63.2687676 C2.26555381,61.0583029 2.8571872,58.0555294 5.05906346,56.5750239 C7.26093973,55.0945184 10.2523116,55.6882107 11.7275863,57.8988715 C11.8496631,58.0819985 11.9619739,58.2788503 12.0613933,58.4839369 C12.2463642,58.8664645 12.5873981,59.149782 12.9964045,59.2609523 C13.4048249,59.3717304 13.8421532,59.2997737 14.1943205,59.0633163 L25.0116993,51.7901932 C26.0820694,53.5183319 27.3309647,55.1364768 28.744908,56.6114925 L17.57126,64.1246022 Z M82.4284601,13.1862712 C82.7806274,12.9496178 83.0132571,12.5712076 83.0665803,12.1492703 C83.1199035,11.7271371 82.9884511,11.302651 82.7062094,10.9852177 C82.55542,10.8154233 82.4167407,10.6366097 82.2944685,10.4530906 C81.5799769,9.38236609 81.3235178,8.0963595 81.57275,6.8321164 C81.8217868,5.56787329 82.5464351,4.47656171 83.6130941,3.75954294 C84.679753,3.0423281 85.9614626,2.7848915 87.2203194,3.03507361 C88.4797622,3.28505964 89.56693,4.01246999 90.2814216,5.08319449 C91.2263943,6.49938988 91.3607765,8.26850674 90.6410112,9.81567522 C90.4240074,10.2821197 90.4658065,10.8285598 90.7511734,11.256379 C91.0365403,11.6840022 91.5238712,11.9320276 92.0363988,11.9069309 C93.7359043,11.8302686 95.3143095,12.6257143 96.2592822,14.0419097 C97.7341663,16.2521784 97.1425329,19.2549518 94.9406566,20.7356534 C92.738585,22.216159 89.7474085,21.6222706 88.2721338,19.4118058 C88.1500569,19.2286788 88.0377462,19.031827 87.9383268,18.8267405 C87.7533559,18.4442128 87.4123219,18.1608953 87.0033155,18.049725 C86.5943092,17.9387509 86.1573716,18.0107076 85.8053995,18.2473611 L75.9611199,24.866207 C75.1485762,23.0053306 74.1366077,21.2307238 72.9384964,19.5672873 L82.4284601,13.1862712 Z" id="Shape" fill="#000000"></path>
                <path d="M38.2352941,32.7731092 C33.369954,32.7731092 29.4117647,36.7312986 29.4117647,41.5966387 C29.4117647,46.4619787 33.369954,50.4201681 38.2352941,50.4201681 C43.1006342,50.4201681 47.0588235,46.4619787 47.0588235,41.5966387 C47.0588235,36.7312986 43.1006342,32.7731092 38.2352941,32.7731092 Z M38.2352941,47.4633533 C35.0003417,47.4633533 32.3685794,44.8315911 32.3685794,41.5966387 C32.3685794,38.3616862 35.0003417,35.729924 38.2352941,35.729924 C41.4702466,35.729924 44.1020088,38.3616862 44.1020088,41.5966387 C44.1020088,44.8315911 41.4702466,47.4633533 38.2352941,47.4633533 Z" id="Shape" fill="#000000"></path>
                <path d="M60.9243697,50.4201681 C65.7897098,50.4201681 69.7478992,46.4619787 69.7478992,41.5966387 C69.7478992,36.7312986 65.7897098,32.7731092 60.9243697,32.7731092 C56.0590297,32.7731092 52.1008403,36.7312986 52.1008403,41.5966387 C52.1008403,46.4619787 56.0590297,50.4201681 60.9243697,50.4201681 Z M60.9243697,35.729924 C64.1593222,35.729924 66.7910844,38.3616862 66.7910844,41.5966387 C66.7910844,44.8315911 64.1593222,47.4633533 60.9243697,47.4633533 C57.6894173,47.4633533 55.0576551,44.8315911 55.0576551,41.5966387 C55.0576551,38.3616862 57.6894173,35.729924 60.9243697,35.729924 Z" id="Shape" fill="#000000"></path>
                <path d="M50.0269109,49.5798319 C50.0246637,49.5798319 50.0224164,49.5798319 50.0201692,49.5798319 C49.6140272,49.5798319 49.224229,49.732397 48.9367834,50.0041172 L46.6674551,52.1492974 C46.0688656,52.7149468 46.0688656,53.6318819 46.6672508,54.1975313 C46.9665455,54.4804525 47.358591,54.6218487 47.7508408,54.6218487 C48.1428862,54.6218487 48.535136,54.4804525 48.8342265,54.1975313 L50.0105672,53.0857377 L51.1562634,54.1884546 C51.7497455,54.7593182 52.7197465,54.767043 53.3230348,54.206801 C53.9267318,53.6461728 53.9353122,52.7292377 53.342443,52.1583741 L51.1133611,50.0131939 C50.8267328,49.7376112 50.4357088,49.58157 50.0269109,49.5798319 L50.0269109,49.5798319 Z" id="Path" fill="#000000"></path>
            </g>
        </g>
    </g>
</svg>